<?xml version="1.0" encoding="UTF-8"?>
<svg width="221px" height="23px" viewBox="0 0 221 23" version="1.1" xmlns="http://www.w3.org/2000/svg" xmlns:xlink="http://www.w3.org/1999/xlink">
    <!-- Generator: Sketch 42 (36781) - http://www.bohemiancoding.com/sketch -->
    <title>flowloop-logo</title>
    <desc>Created with Sketch.</desc>
    <defs></defs>
    <g id="Page-1" stroke="none" stroke-width="1" fill="none" fill-rule="evenodd">
        <g id="Artboard" transform="translate(-192.000000, -144.000000)" fill="#000000">
            <g id="flowloop-logo" transform="translate(192.000000, 144.000000)">
                <path d="M18.104,6.352 L18.104,0.88 L0.6,0.88 L0.6,22 L8.056,22 L8.056,14.768 L16.184,14.768 L16.184,9.296 L8.056,9.296 L8.056,6.352 L18.104,6.352 Z M33.4628482,16.528 L33.4628482,0.88 L26.0068482,0.88 L26.0068482,22 L43.0308482,22 L43.0308482,16.528 L33.4628482,16.528 Z M60.5656964,0.56 C67.2856964,0.56 71.2856964,4.528 71.2856964,11.44 C71.2856964,18.352 67.2856964,22.32 60.5656964,22.32 C53.8776964,22.32 49.8136964,18.352 49.8136964,11.44 C49.8136964,4.528 53.8776964,0.56 60.5656964,0.56 Z M60.5656964,6.16 C58.3896964,6.16 57.4296964,7.76 57.4296964,11.44 C57.4296964,15.12 58.3896964,16.72 60.5656964,16.72 C62.7416964,16.72 63.6696964,15.12 63.6696964,11.44 C63.6696964,7.76 62.7416964,6.16 60.5656964,6.16 Z M92.8845446,14.064 L93.7165446,8.656 L93.8125446,8.656 L94.6445446,14.064 L96.3085446,22 L104.212545,22 L110.228545,0.88 L102.484545,0.88 L100.084545,16.048 L96.9485446,0.88 L90.5485446,0.88 L87.5725446,16.144 L85.1085446,0.88 L77.0765446,0.88 L83.0605446,22 L91.2525446,22 L92.8845446,14.064 Z M124.819393,16.528 L124.819393,0.88 L117.363393,0.88 L117.363393,22 L134.387393,22 L134.387393,16.528 L124.819393,16.528 Z M211.215937,0.88 C217.103937,0.88 220.079937,3.344 220.079937,8.272 C220.079937,12.816 217.103937,15.28 211.215937,15.28 L207.471937,15.28 L207.471937,22 L200.015937,22 L200.015937,0.88 L211.215937,0.88 Z M209.999937,10.16 C211.823937,10.16 212.623937,9.552 212.623937,8.176 C212.623937,6.8 211.823937,6.192 209.999937,6.192 L207.471937,6.192 L207.471937,10.16 L209.999937,10.16 Z" id="FLOWLOOP-Copy"></path>
                <g id="ios-infinite" transform="translate(141.000000, 0.000000)">
                    <path d="M46.6401923,3.21295192 C44.4808176,1.14103846 41.6015076,0 38.5328657,0 C35.4642239,0 32.5851294,1.14103846 30.4283409,3.21051923 L26.2143328,7.21758654 L28.9147635,9.82892308 L33.1004311,5.834125 C34.5506464,4.44907692 36.4755384,3.68626923 38.5205812,3.68626923 C40.5657318,3.68626923 42.4905161,4.44907692 43.9388995,5.83243269 C45.3788778,7.21557692 46.1707958,9.05500962 46.1687484,11.0119519 C46.166701,12.9626538 45.3753218,14.7932019 43.9406237,16.165875 C42.4904083,17.5509231 40.5656241,18.3137308 38.5204735,18.3137308 C36.4754306,18.3137308 34.5505386,17.5509231 33.1011854,16.1667212 L19.5739241,3.21104808 C17.4020494,1.14040385 14.5234937,0 11.4684295,0 C8.39978762,0 5.52069315,1.14103846 3.36174946,3.21252885 C1.19644801,5.28698077 0.00248264096,8.05242308 4.19299358e-06,10.9992596 C-0.00258201358,13.9419712 1.19127559,16.7079423 3.36121067,18.7870481 C5.52069315,20.8589615 8.39989538,22 11.4684295,22 C14.5368558,22 17.416058,20.8589615 19.5743552,18.7885288 L23.7762943,14.7789231 L21.0728464,12.1873654 L16.8886874,16.165875 C15.4384721,17.5509231 13.5135801,18.3137308 11.4684295,18.3137308 C9.42349439,18.3137308 7.49871014,17.5509231 6.05032671,16.1675673 C4.61024068,14.7844231 3.81821492,12.9448846 3.82037009,10.9879423 C3.8224175,9.03724038 4.61379672,7.20679808 6.04860257,5.834125 C7.4988179,4.44907692 9.42360214,3.68626923 11.4685372,3.68626923 C13.5136878,3.68626923 15.4385798,4.44907692 16.8879331,5.83327885 L30.4150866,18.7888462 C32.5868535,20.8595962 35.4654092,22 38.5204735,22 C41.5890076,22 44.468102,20.8589615 46.6253216,18.789375 C48.7997825,16.7191538 49.9982738,13.9528654 49.9999979,11.0005288 C50.0018298,8.056125 48.8084032,5.29036538 46.6401923,3.21295192 L46.6401923,3.21295192 Z" id="Shape"></path>
                </g>
            </g>
        </g>
    </g>
</svg>